<?xml version="1.0" encoding="utf-8"?>
<!-- Generator: Adobe Illustrator 20.1.0, SVG Export Plug-In . SVG Version: 6.00 Build 0)  -->
<svg version="1.1" id="Layer_1" xmlns="http://www.w3.org/2000/svg" xmlns:xlink="http://www.w3.org/1999/xlink" x="0px" y="0px"
	 viewBox="0 0 435.2 219.1" style="enable-background:new 0 0 435.2 219.1;" xml:space="preserve">
<g>
	<path d="M31.3,1h10.1l60.1,76.4V1h10.5v95.4h-8.6L41.8,18.1v78.2H31.3V1z"/>
	<path d="M174.2,0.3h10.1l43.5,96.1h-11.6L205,71.1h-51.9l-11.3,25.2h-11L174.2,0.3z M200.8,61.5l-21.7-48.6l-21.8,48.6H200.8z"/>
	<path d="M271.8,10.9h-32V1h74.9v9.9h-32v85.4h-10.9V10.9z"/>
	<path d="M334.8,1h68.9v9.8h-58.2v32.6h52v9.8h-52v33.4h58.9v9.8h-69.6V1z"/>
</g>
<g>
	<path d="M30.9,112.3H54v45.9l42.6-45.9h27.9l-42.7,44.5l44.7,60.4H98.7l-32.5-44.7L54,185.2v32.1H30.9V112.3z"/>
	<path d="M141.5,112.3h23.1v105h-23.1V112.3z"/>
	<path d="M190.8,112.3h21.3l49.2,64.6v-64.6h22.8v105h-19.6l-50.8-66.7v66.7h-22.8V112.3z"/>
	<path d="M304.6,165.1v-0.3c0-29.8,23.2-54.3,55-54.3c18.9,0,30.3,5.1,41.2,14.4l-14.5,17.5c-8.1-6.8-15.3-10.6-27.4-10.6
		c-16.8,0-30.1,14.8-30.1,32.7v0.3c0,19.2,13.2,33.3,31.8,33.3c8.4,0,15.9-2.1,21.7-6.3v-15h-23.2v-19.9h45.6v45.6
		c-10.8,9.1-25.6,16.6-44.8,16.6C327.1,219.1,304.6,196.2,304.6,165.1z"/>
</g>
<rect width="10.7" height="217.5"/>
<rect x="424.5" width="10.7" height="217.5"/>
</svg>
